<?xml version="1.0" encoding="UTF-8" standalone="no"?>
<svg
   version="1.1"
   preserveAspectRatio="xMidYMid"
   viewBox="0 0 170.341 170.34099"
   width="170.341"
   height="170.34099"
   id="svg99"
   sodipodi:docname="spinner-banner.svg"
   inkscape:version="1.2-alpha1 (b6a15bbbed, 2022-02-23)"
   inkscape:export-filename="C:\Users\TheBrenny\My Space\Programming\!Builds\Spinnr-Builds\res\spinnr-banner.svg"
   inkscape:export-xdpi="96"
   inkscape:export-ydpi="96"
   xmlns:inkscape="http://www.inkscape.org/namespaces/inkscape"
   xmlns:sodipodi="http://sodipodi.sourceforge.net/DTD/sodipodi-0.dtd"
   xmlns:xlink="http://www.w3.org/1999/xlink"
   xmlns="http://www.w3.org/2000/svg"
   xmlns:svg="http://www.w3.org/2000/svg">
  <sodipodi:namedview
     id="namedview101"
     pagecolor="#ffffff"
     bordercolor="#666666"
     borderopacity="1.0"
     inkscape:pageshadow="2"
     inkscape:pageopacity="0.0"
     inkscape:pagecheckerboard="0"
     showgrid="false"
     inkscape:zoom="1"
     inkscape:cx="311"
     inkscape:cy="599"
     inkscape:window-width="3000"
     inkscape:window-height="1890"
     inkscape:window-x="-12"
     inkscape:window-y="-12"
     inkscape:window-maximized="1"
     inkscape:current-layer="layer3"
     inkscape:snap-midpoints="true"
     inkscape:snap-object-midpoints="true"
     inkscape:snap-text-baseline="true"
     inkscape:snap-bbox="true"
     showguides="true"
     inkscape:snap-bbox-edge-midpoints="true"
     inkscape:snap-bbox-midpoints="true"
     inkscape:bbox-paths="true"
     inkscape:bbox-nodes="true"
     inkscape:object-paths="true"
     inkscape:snap-intersection-paths="true"
     inkscape:snap-smooth-nodes="true"
     inkscape:deskcolor="#d1d1d1" />
  <defs
     id="defs21">
    <linearGradient
       inkscape:collect="always"
       id="linearGradient83518">
      <stop
         style="stop-color:#e23c3f;stop-opacity:1;"
         offset="0"
         id="stop83514" />
      <stop
         style="stop-color:#ed6b6c;stop-opacity:1;"
         offset="0.38186342"
         id="stop83516" />
    </linearGradient>
    <linearGradient
       inkscape:collect="always"
       id="disk_in_gradient">
      <stop
         style="stop-color:#dedede;stop-opacity:1"
         offset="0"
         id="stop36596" />
      <stop
         style="stop-color:#cccccc;stop-opacity:1"
         offset="1"
         id="stop36598" />
    </linearGradient>
    <linearGradient
       inkscape:collect="always"
       id="disk_out_gradient">
      <stop
         style="stop-color:#fdd25e;stop-opacity:1;"
         offset="0"
         id="stop33014" />
      <stop
         style="stop-color:#fdc835;stop-opacity:1"
         offset="1"
         id="stop33016" />
    </linearGradient>
    <radialGradient
       inkscape:collect="always"
       xlink:href="#disk_out_gradient"
       id="radialGradient33022"
       cx="951.10388"
       cy="263.95508"
       fx="951.10388"
       fy="263.95508"
       r="100"
       gradientUnits="userSpaceOnUse" />
    <filter
       style="color-interpolation-filters:sRGB"
       inkscape:label="Drop Shadow"
       id="filter35260"
       x="-0.048"
       y="-0.048"
       width="1.096"
       height="1.096">
      <feFlood
         flood-opacity="0.396078"
         flood-color="rgb(253,213,67)"
         result="flood"
         id="feFlood35250" />
      <feComposite
         in="flood"
         in2="SourceGraphic"
         operator="in"
         result="composite1"
         id="feComposite35252" />
      <feGaussianBlur
         in="composite1"
         stdDeviation="4"
         result="blur"
         id="feGaussianBlur35254" />
      <feOffset
         dx="0"
         dy="0"
         result="offset"
         id="feOffset35256" />
      <feComposite
         in="SourceGraphic"
         in2="offset"
         operator="over"
         result="composite2"
         id="feComposite35258" />
    </filter>
    <radialGradient
       inkscape:collect="always"
       xlink:href="#disk_in_gradient"
       id="radialGradient36402"
       cx="50"
       cy="50"
       fx="50"
       fy="50"
       r="92.5"
       gradientUnits="userSpaceOnUse"
       gradientTransform="matrix(1.0810811,0,0,1.0810811,-4.0540541,-4.0540541)" />
    <radialGradient
       inkscape:collect="always"
       xlink:href="#disk_out_gradient"
       id="radialGradient47141"
       gradientUnits="userSpaceOnUse"
       cx="951.10388"
       cy="263.95508"
       fx="951.10388"
       fy="263.95508"
       r="100" />
    <linearGradient
       inkscape:collect="always"
       xlink:href="#linearGradient83518"
       id="linearGradient83520"
       x1="-27.671068"
       y1="125.066"
       x2="21.182253"
       y2="16.348343"
       gradientUnits="userSpaceOnUse" />
  </defs>
  <g
     inkscape:groupmode="layer"
     id="layer3"
     inkscape:label="Card Items"
     style="display:inline"
     transform="translate(-852.68274,-163.105)">
    <g
       id="disk"
       inkscape:export-filename="C:\Users\TheBrenny\My Space\Programming\!Builds\Spinnr-Builds\res\disk.png"
       inkscape:export-xdpi="100"
       inkscape:export-ydpi="100"
       transform="matrix(0.777103,0,0,0.777103,898.99809,209.42034)">
      <circle
         style="fill:url(#radialGradient47141);fill-opacity:1;stroke:none;stroke-width:2.07367;stroke-linecap:round;stroke-linejoin:round;stroke-opacity:1;paint-order:markers fill stroke;filter:url(#filter35260)"
         id="disk_glow"
         cx="50"
         cy="50"
         r="100"
         inkscape:label="disk_glow" />
      <rect
         style="fill:#554c50;fill-opacity:1;stroke:none;stroke-width:3.0375;stroke-linecap:round;stroke-miterlimit:4;stroke-dasharray:none;stroke-opacity:1"
         id="needle_base"
         width="100"
         height="100"
         x="-50"
         y="50.000034"
         ry="3.7430282" />
      <circle
         style="fill:url(#radialGradient33022);fill-opacity:1;stroke:none;stroke-width:2.07367;stroke-linecap:round;stroke-linejoin:round;stroke-opacity:1;paint-order:markers fill stroke"
         id="disk_outer"
         cx="50"
         cy="50"
         r="100"
         inkscape:label="disk_outer" />
      <circle
         style="display:inline;fill:url(#radialGradient36402);fill-opacity:1;stroke:none;stroke-width:2.07367;stroke-linecap:round;stroke-linejoin:round;stroke-opacity:1;paint-order:markers fill stroke"
         id="disk_inner"
         cx="50"
         cy="50"
         r="90"
         inkscape:label="disk_inner" />
      <circle
         style="display:inline;fill:#554c50;fill-opacity:1;stroke:none;stroke-width:2.07367;stroke-linecap:round;stroke-linejoin:round;stroke-opacity:1;paint-order:markers fill stroke"
         id="disk_inner_hole"
         cx="50"
         cy="50"
         r="15"
         inkscape:label="disk_inner_hole" />
      <g
         id="rings">
        <path
           d="m 50,50 m -87.2733,0 c -0.0032,31.1819 16.6302,59.997 43.63403,75.588 h 4e-5 c 27.00373,15.592 60.27473,15.592 87.27853,0 v 0 C 120.643,109.997 137.277,81.1819 137.273,50 v 0 c 0.004,-31.1819 -16.63,-59.99658 -43.6337,-75.5885 h -1e-4 c -27.0037,-15.5919 -60.2747,-15.5918 -87.27847,0 l -4e-5,10e-5 C -20.6431,-9.99654 -37.2765,18.8181 -37.2733,50"
           style="fill:none;stroke:#554c50;stroke-width:0.201751;stroke-miterlimit:4;stroke-dasharray:none;stroke-opacity:1"
           id="path14594" />
        <path
           d="m 50,50 m -80.046,0 c -0.0029,28.5996 15.2531,55.028 40.02065,69.329 h 1.3e-4 c 24.76752,14.3 55.28312,14.3 80.05052,0 h 2e-4 C 114.793,105.028 130.049,78.5996 130.046,50 v -1e-4 C 130.049,21.4003 114.793,-5.02803 90.0253,-19.3287 h -1e-4 c -24.7675,-14.3006 -55.2831,-14.3006 -80.05055,0 l -1.2e-4,10e-5 C -14.7929,-5.02792 -30.0489,21.4004 -30.046,50"
           style="fill:none;stroke:#554c50;stroke-width:0.201751;stroke-miterlimit:4;stroke-dasharray:none;stroke-opacity:1"
           id="path14590" />
        <path
           d="m 50,50 m -83.6596,0 c -0.0031,29.8908 15.9416,57.512 41.82729,72.459 h 8e-5 c 25.88563,14.946 57.77893,14.946 83.66453,0 h 1e-4 C 117.718,107.512 133.663,79.8907 133.66,50 v -1e-4 C 133.663,20.1092 117.718,-7.5123 91.8323,-22.4586 h -1e-4 c -25.8856,-14.9462 -57.7789,-14.9462 -83.66451,0 l -8e-5,10e-5 C -17.718,-7.51223 -33.6627,20.1093 -33.6596,50"
           style="fill:none;stroke:#554c50;stroke-width:0.201751;stroke-miterlimit:4;stroke-dasharray:none;stroke-opacity:1"
           id="path14592" />
        <path
           d="m 50,50 m -69.205,0 c -0.0024,24.7262 13.18745,47.5752 34.6005,59.939 h 3e-4 c 21.413,12.364 47.7956,12.364 69.2087,0 h 2e-4 C 106.018,97.575 119.207,74.7261 119.205,50 v -3e-4 C 119.207,25.2736 106.017,2.4248 84.6045,-9.93894 l -3e-4,-1.4e-4 C 63.1912,-22.3027 36.8086,-22.3027 15.3955,-9.93894 l -2e-4,1.4e-4 C -6.01765,2.42502 -19.2074,25.2739 -19.205,50"
           style="fill:none;stroke:#554c50;stroke-width:0.201751;stroke-miterlimit:4;stroke-dasharray:none;stroke-opacity:1"
           id="path14584" />
        <path
           d="m 50,50 m -33.0683,0 c -8e-4,11.8147 6.3018,22.7323 16.5335,28.6399 l 6e-4,4e-4 c 10.2316,5.9072 22.8375,5.9071 33.069,-4e-4 l 7e-4,-4e-4 C 76.7668,72.7318 83.0691,61.8145 83.0683,50 v -7e-4 c 6e-4,-11.8145 -6.302,-22.7317 -16.5335,-28.6392 l -6e-4,-4e-4 c -10.2316,-5.9072 -22.8375,-5.9071 -33.069,4e-4 l -7e-4,4e-4 C 23.2332,27.2682 16.9309,38.1855 16.9317,50"
           style="fill:none;stroke:#554c50;stroke-width:0.201751;stroke-miterlimit:4;stroke-dasharray:none;stroke-opacity:1"
           id="path14564" />
        <path
           d="m 50,50 m -29.4547,0 c -6e-4,10.5236 5.6133,20.248 14.7268,25.51 l 7e-4,4e-4 c 9.1135,5.2616 20.3417,5.2614 29.4551,-4e-4 l 6e-4,-4e-4 C 73.8417,70.2475 79.4553,60.5233 79.4547,50 v -8e-4 C 79.455,39.4759 73.8412,29.7518 64.7279,24.49 l -7e-4,-4e-4 C 55.6137,19.228 44.3855,19.2282 35.2721,24.49 l -6e-4,4e-4 C 26.1583,29.7525 20.5447,39.4767 20.5453,50"
           style="fill:none;stroke:#554c50;stroke-width:0.201751;stroke-miterlimit:4;stroke-dasharray:none;stroke-opacity:1"
           id="path14562" />
        <path
           d="m 50,50 m -22.2273,0 c -4e-4,7.9413 4.2361,15.2795 11.1134,19.2502 l 7e-4,4e-4 c 6.8772,3.9703 15.3501,3.9702 22.2271,-4e-4 l 8e-4,-5e-4 C 67.9915,65.2789 72.2277,57.941 72.2273,50 v -9e-4 c 0,-7.9409 -4.2363,-15.2787 -11.1134,-19.2493 l -7e-4,-4e-4 c -6.8772,-3.9703 -15.3501,-3.9702 -22.2271,4e-4 l -8e-4,5e-4 C 32.0085,34.7211 27.7723,42.059 27.7727,50"
           style="fill:none;stroke:#554c50;stroke-width:0.201751;stroke-miterlimit:4;stroke-dasharray:none;stroke-opacity:1"
           id="path14558" />
        <path
           d="m 50,50 m -25.841,0 c -5e-4,9.2324 4.9247,17.7637 12.9201,22.3801 l 7e-4,4e-4 c 7.9953,4.6159 17.8459,4.6158 25.8411,-4e-4 l 7e-4,-4e-4 C 70.9166,67.7632 75.8415,59.2321 75.841,50 v -8e-4 c 2e-4,-9.2321 -4.9249,-17.7631 -12.9201,-22.3793 l -7e-4,-4e-4 c -7.9953,-4.6159 -17.8459,-4.6158 -25.8411,4e-4 l -7e-4,4e-4 C 29.0834,32.2368 24.1585,40.7679 24.159,50"
           style="fill:none;stroke:#554c50;stroke-width:0.201751;stroke-miterlimit:4;stroke-dasharray:none;stroke-opacity:1"
           id="path14560" />
        <path
           d="m 50,50 m -76.4323,0 c -0.0028,27.3085 14.5645,52.544 38.2139,66.199 h 2e-4 c 23.6493,13.655 52.7873,13.655 76.4366,0 h 1e-4 C 111.868,102.544 126.435,77.3084 126.432,50 v -2e-4 C 126.435,22.6914 111.868,-2.54375 88.2184,-16.1988 h -2e-4 c -23.6493,-13.655 -52.7873,-13.655 -76.4366,0 l -10e-5,10e-5 C -11.8678,-2.54361 -26.4351,22.6916 -26.4323,50"
           style="fill:none;stroke:#554c50;stroke-width:0.201751;stroke-miterlimit:4;stroke-dasharray:none;stroke-opacity:1"
           id="path14588" />
        <path
           d="m 50,50 m -72.8186,0 c -0.0026,26.0173 13.87595,50.059 36.4072,63.069 h 2e-4 c 22.5312,13.009 50.2915,13.009 72.8226,0 h 2e-4 C 108.943,100.059 122.821,76.0172 122.819,50 v -2e-4 C 122.821,23.9825 108.943,-0.0594753 86.4114,-13.0688 l -2e-4,-2e-4 C 63.88,-26.0783 36.1197,-26.0782 13.5886,-13.0688 l -2e-4,10e-5 C -8.94273,-0.0592924 -22.8212,23.9828 -22.8186,50"
           style="fill:none;stroke:#554c50;stroke-width:0.201751;stroke-miterlimit:4;stroke-dasharray:none;stroke-opacity:1"
           id="path14586" />
        <path
           d="M 50,50 M -8.36398,50 C -8.36593,70.8527 2.75776,90.1223 20.8164,100.549 h 4e-4 c 18.0586,10.427 40.3082,10.427 58.3668,0 h 3e-4 C 97.2424,90.122 108.366,70.8526 108.364,50 v -4e-4 C 108.366,29.147 97.2421,9.87763 79.1836,-0.549232 l -4e-4,-2.1e-4 C 61.1246,-10.9762 38.875,-10.9761 20.8164,-0.549232 l -3e-4,2.11e-4 C 2.75761,9.87796 -8.36593,29.1474 -8.36398,50"
           style="fill:none;stroke:#554c50;stroke-width:0.201751;stroke-miterlimit:4;stroke-dasharray:none;stroke-opacity:1"
           id="path14578" />
        <path
           d="m 50,50 m -65.5913,0 c -0.0023,23.435 12.49885,45.0909 32.7938,56.809 h 3e-4 c 20.2949,11.718 45.2998,11.718 65.5947,0 h 3e-4 C 103.093,95.0907 115.594,73.4349 115.591,50 v -3e-4 C 115.593,26.5648 103.092,4.90908 82.7975,-6.80904 l -3e-4,-1.6e-4 c -20.2949,-11.718 -45.2998,-11.718 -65.5947,1.6e-4 l -3e-4,1.6e-4 C -3.09256,4.90933 -15.5936,26.5651 -15.5913,50"
           style="fill:none;stroke:#554c50;stroke-width:0.201751;stroke-miterlimit:4;stroke-dasharray:none;stroke-opacity:1"
           id="path14582" />
        <path
           d="M 50,50 M -1.13665,50 C -1.13827,68.2704 8.60796,85.1537 24.4304,94.2894 l 4e-4,3e-4 c 15.8223,9.1353 35.3166,9.1353 51.1388,-3e-4 l 5e-4,-2e-4 C 91.3922,85.1534 101.138,68.2703 101.137,50 v -5e-4 C 101.138,31.7292 91.3919,14.8462 75.5696,5.71058 l -4e-4,-2.6e-4 C 59.7469,-3.42512 40.2526,-3.42503 24.4304,5.71058 l -5e-4,2.5e-4 C 8.60778,14.8466 -1.13827,31.7297 -1.13665,50"
           style="fill:none;stroke:#554c50;stroke-width:0.201751;stroke-miterlimit:4;stroke-dasharray:none;stroke-opacity:1"
           id="path14574" />
        <path
           d="M 50,50 M -4.75032,50 C -4.7521,69.5616 5.68286,87.638 22.6234,97.4193 l 4e-4,3e-4 c 16.9405,9.7814 37.8124,9.7814 54.7528,-3e-4 l 4e-4,-2e-4 C 94.3173,87.6377 104.752,69.5614 104.75,50 v -5e-4 C 104.752,30.4381 94.317,12.3619 77.3766,2.58067 l -4e-4,-2.3e-4 c -16.9405,-9.78108 -37.8124,-9.781 -54.7528,2.3e-4 l -4e-4,2.4e-4 C 5.68269,12.3623 -4.7521,30.4386 -4.75032,50"
           style="fill:none;stroke:#554c50;stroke-width:0.201751;stroke-miterlimit:4;stroke-dasharray:none;stroke-opacity:1"
           id="path14576" />
        <path
           d="m 50,50 m -36.682,0 c -10e-4,13.1059 6.9904,25.2166 18.3402,31.7698 l 6e-4,4e-4 c 11.3498,6.5528 25.3333,6.5527 36.683,-4e-4 l 6e-4,-3e-4 C 79.6919,75.2162 86.683,63.1056 86.682,50 v -7e-4 c 7e-4,-13.1056 -6.9906,-25.216 -18.3402,-31.7691 l -6e-4,-4e-4 c -11.3498,-6.5528 -25.3333,-6.5527 -36.683,4e-4 l -6e-4,3e-4 C 20.3081,24.7838 13.317,36.8944 13.318,50"
           style="fill:none;stroke:#554c50;stroke-width:0.201751;stroke-miterlimit:4;stroke-dasharray:none;stroke-opacity:1"
           id="path14566" />
        <path
           d="M 50,50 M 6.09068,50 C 6.08938,65.6882 14.4582,80.1852 28.0443,88.0296 l 5e-4,3e-4 c 13.586,7.8442 30.325,7.8441 43.9109,-3e-4 l 5e-4,-3e-4 C 85.542,80.1848 93.9106,65.688 93.9093,50 v -6e-4 C 93.9104,34.3115 85.5417,19.8147 71.9557,11.9704 l -5e-4,-3e-4 c -13.586,-7.84417 -30.325,-7.84407 -43.9109,3e-4 l -5e-4,3e-4 C 14.458,19.8152 6.08938,34.312 6.09068,50"
           style="fill:none;stroke:#554c50;stroke-width:0.201751;stroke-miterlimit:4;stroke-dasharray:none;stroke-opacity:1"
           id="path14570" />
        <path
           d="M 50,50 M 9.70434,50 C 9.70321,64.397 17.3833,77.7009 29.8513,84.8997 l 5e-4,3e-4 c 12.4679,7.1985 27.8291,7.1984 40.2969,-3e-4 l 6e-4,-3e-4 C 82.617,77.7005 90.2968,64.3968 90.2957,50 v -7e-4 c 9e-4,-14.3967 -7.6792,-27.7003 -20.147,-34.899 l -5e-4,-3e-4 C 57.6803,7.90146 42.3191,7.90157 29.8513,15.1003 l -6e-4,3e-4 C 17.383,22.2995 9.70321,35.6032 9.70434,50"
           style="fill:none;stroke:#554c50;stroke-width:0.201751;stroke-miterlimit:4;stroke-dasharray:none;stroke-opacity:1"
           id="path14568" />
        <path
           d="M 50,50 M 2.47701,50 C 2.47555,66.9793 11.5331,82.6694 26.2373,91.1595 l 5e-4,3e-4 c 14.7042,8.4898 32.8208,8.4897 47.5249,-3e-4 l 5e-4,-3e-4 C 88.4671,82.6691 97.5244,66.9791 97.523,50 v -6e-4 C 97.5242,33.0204 88.4668,17.3305 73.7627,8.84048 l -5e-4,-2.8e-4 C 59.058,0.350409 40.9414,0.350502 26.2373,8.84048 l -5e-4,2.8e-4 C 11.5329,17.3309 2.47555,33.0209 2.47701,50"
           style="fill:none;stroke:#554c50;stroke-width:0.201751;stroke-miterlimit:4;stroke-dasharray:none;stroke-opacity:1"
           id="path14572" />
        <path
           d="m 50,50 m -61.9776,0 c -0.0022,22.1439 11.810256,42.6066 30.9871,53.679 h 3e-4 c 19.1768,11.073 42.804,11.073 61.9807,0 h 4e-4 C 100.167,92.6064 111.98,72.1438 111.978,50 v -4e-4 C 111.98,27.8559 100.167,7.39335 80.9905,-3.67914 l -3e-4,-1.8e-4 C 61.8134,-14.7517 38.1862,-14.7516 19.0095,-3.67914 l -4e-4,1.9e-4 C -0.167477,7.39365 -11.9798,27.8562 -11.9776,50"
           style="fill:none;stroke:#554c50;stroke-width:0.201751;stroke-miterlimit:4;stroke-dasharray:none;stroke-opacity:1"
           id="path14580" />
        <path
           d="m 50,50 m -18.6137,0 c -10e-5,6.6501 3.5476,12.7952 9.3067,16.1203 l 8e-4,5e-4 c 5.7591,3.3246 12.8543,3.3244 18.6132,-5e-4 l 8e-4,-5e-4 c 5.7587,-3.3252 9.306,-9.47 9.3059,-16.1198 v -9e-4 C 68.6135,43.3493 65.0658,37.2047 59.307,33.8797 l -8e-4,-5e-4 c -5.7591,-3.3246 -12.8543,-3.3244 -18.6132,5e-4 l -8e-4,5e-4 c -5.7587,3.3252 -9.306,9.47 -9.3059,16.1198"
           style="fill:none;stroke:#554c50;stroke-width:0.201751;stroke-miterlimit:4;stroke-dasharray:none;stroke-opacity:1"
           id="path14556" />
        <path
           d="m 50,50 m -15,0 c 0,5.359 2.859,10.3109 7.5,12.9904 l 8e-4,5e-4 c 4.6409,2.679 10.3585,2.6788 14.9992,-5e-4 l 8e-4,-5e-4 C 62.1414,60.3103 65,55.3587 65,50 v -10e-4 c -3e-4,-5.3586 -2.8593,-10.3101 -7.5,-12.9894 l -8e-4,-5e-4 C 52.8583,34.3301 47.1407,34.3303 42.5,37.0096 l -8e-4,5e-4 C 37.8586,39.6897 35,44.6413 35,50"
           style="fill:none;stroke:#554c50;stroke-width:0.201751;stroke-miterlimit:4;stroke-dasharray:none;stroke-opacity:1"
           id="path14554" />
      </g>
      <circle
         style="fill:#e23c3f;fill-opacity:1;stroke:none;stroke-width:10.2179;stroke-linecap:round;stroke-miterlimit:4;stroke-dasharray:none;stroke-opacity:1"
         id="needle_dial"
         cy="130"
         r="10"
         cx="-30" />
      <path
         style="fill:none;fill-opacity:1;stroke:url(#linearGradient83520);stroke-width:8.07006;stroke-linecap:round;stroke-miterlimit:4;stroke-dasharray:none;stroke-opacity:1"
         d="M -30,130 C -19.280408,94.365657 -5.6151733,49.776253 7.515305,37.773145 11.778034,33.87641 27.241865,20.669679 45.25472,14.41956"
         id="needle"
         sodipodi:nodetypes="csc" />
    </g>
  </g>
</svg>
